<?xml version="1.0" standalone="no"?>
<!DOCTYPE svg PUBLIC "-//W3C//DTD SVG 20010904//EN"
 "http://www.w3.org/TR/2001/REC-SVG-20010904/DTD/svg10.dtd">
<svg version="1.0" xmlns="http://www.w3.org/2000/svg"
 width="543.000000pt" height="543.000000pt" viewBox="0 0 543.000000 543.000000"
 preserveAspectRatio="xMidYMid meet">
<metadata>
Created by potrace 1.14, written by Peter Selinger 2001-2017
</metadata>
<g transform="translate(0.000000,543.000000) scale(0.100000,-0.100000)"
fill="#000000" stroke="none">
<path d="M3028 3755 c-2 -2 -23 -6 -48 -9 -117 -14 -193 -32 -288 -68 -52 -20
-54 -21 -48 -51 7 -33 24 -50 40 -40 6 4 19 7 30 8 12 1 57 6 101 10 134 13
313 6 387 -16 17 -4 35 -6 39 -3 5 3 9 0 9 -5 0 -6 3 -10 8 -9 31 7 174 -60
229 -106 22 -20 44 -32 48 -28 5 4 5 2 2 -4 -3 -6 4 -21 16 -35 12 -14 23 -31
25 -39 2 -8 8 -17 13 -18 5 -2 7 -8 3 -13 -3 -5 -2 -14 2 -21 4 -7 8 -37 8
-68 l1 -55 39 -13 c22 -7 47 -14 55 -15 9 -1 21 -5 26 -9 6 -3 27 -9 47 -13
32 -6 37 -4 44 17 4 12 8 50 10 84 7 158 -104 324 -280 419 -35 19 -66 31 -70
28 -3 -4 -6 -2 -6 4 0 6 -10 13 -22 16 -13 3 -48 12 -78 21 -30 8 -73 18 -95
21 -41 7 -242 15 -247 10z"/>
<path d="M2826 3433 c-2 -2 -34 -5 -72 -8 -38 -2 -86 -7 -107 -11 -20 -3 -47
-7 -60 -9 -55 -8 -106 -18 -157 -32 -30 -8 -61 -15 -67 -16 -7 0 -13 -4 -13
-8 0 -4 -6 -6 -12 -6 -27 2 -88 -16 -88 -26 0 -6 -3 -8 -6 -4 -13 13 -344
-132 -352 -154 -2 -5 -9 -9 -15 -9 -27 0 -217 -136 -313 -224 -33 -30 -39 -50
-16 -52 4 0 21 -3 37 -7 17 -4 39 -9 50 -11 11 -2 61 -14 110 -26 50 -12 101
-24 115 -26 14 -3 58 -14 98 -25 40 -10 78 -17 83 -14 5 4 9 1 9 -5 0 -7 6
-10 13 -7 6 2 19 1 28 -4 9 -4 27 -10 40 -13 13 -2 46 -11 73 -20 27 -8 53
-13 57 -10 4 2 11 -1 14 -7 4 -5 13 -8 21 -5 8 3 14 2 14 -2 0 -9 137 -48 157
-46 7 1 10 -2 8 -7 -3 -4 3 -8 12 -7 10 0 37 -6 60 -15 22 -9 44 -13 47 -10 3
4 6 1 6 -5 0 -7 3 -11 8 -10 4 0 14 -1 22 -5 8 -3 59 -20 112 -37 54 -17 153
-54 220 -81 68 -28 128 -51 133 -52 6 -2 25 -10 44 -20 18 -9 37 -14 41 -12 5
3 10 2 12 -3 1 -4 73 -42 160 -84 86 -43 186 -95 222 -117 36 -23 66 -38 66
-35 0 3 7 -1 15 -8 37 -33 46 -39 57 -32 6 4 8 3 5 -3 -4 -6 8 -18 26 -27 17
-9 73 -45 122 -81 50 -36 97 -68 105 -72 8 -4 21 -14 28 -22 11 -13 12 -13 6
-1 -4 8 2 5 14 -6 24 -25 117 -87 129 -86 4 1 17 -7 28 -18 19 -17 105 -60
122 -60 4 0 21 -7 37 -15 16 -9 31 -13 34 -11 2 3 16 0 31 -6 49 -19 206 -17
304 4 85 19 204 68 218 90 3 5 9 8 12 6 13 -8 139 106 183 165 26 36 47 67 46
71 -1 3 7 15 18 26 12 12 18 25 15 30 -3 5 -1 11 5 15 6 4 8 11 5 16 -4 5 -2
9 3 9 5 0 15 19 22 43 7 23 12 42 12 42 0 0 5 28 12 63 28 130 5 291 -59 427
-35 76 -108 179 -119 168 -3 -3 -6 -1 -6 6 0 13 -43 57 -97 98 -41 33 -190
105 -218 107 -14 0 -25 4 -25 8 0 4 -8 7 -17 7 -10 0 -36 3 -58 7 -67 13 -250
5 -277 -12 -4 -3 -20 -8 -35 -10 -15 -3 -31 -8 -37 -12 -6 -4 -13 -7 -16 -7
-15 -1 -70 -31 -70 -38 0 -5 -4 -5 -10 -2 -15 9 -12 -21 3 -37 8 -7 12 -19 9
-27 -3 -9 0 -11 8 -6 8 5 11 4 7 -2 -4 -6 5 -33 18 -62 14 -28 25 -54 24 -57
-1 -12 25 -23 36 -14 5 4 33 18 62 29 110 43 237 44 344 3 15 -6 30 -8 35 -4
4 4 3 1 -1 -7 -6 -11 -4 -13 9 -8 10 4 15 3 11 -3 -3 -6 -2 -10 3 -10 5 0 25
-11 45 -24 19 -13 38 -22 41 -18 3 3 6 0 6 -7 0 -7 13 -24 29 -39 123 -116
169 -343 103 -505 -7 -16 -12 -32 -12 -37 0 -5 -6 -15 -13 -22 -7 -7 -23 -29
-35 -50 -12 -20 -41 -52 -65 -73 -60 -51 -65 -55 -77 -55 -6 0 -8 -6 -4 -12 4
-7 4 -10 0 -6 -4 3 -26 -2 -49 -12 -87 -37 -106 -40 -197 -41 -85 -1 -185 25
-242 63 -14 10 -31 18 -36 18 -6 0 -12 4 -14 9 -1 5 -23 25 -46 45 -24 20 -40
36 -35 36 4 0 -1 7 -11 15 -11 8 -17 15 -13 15 3 0 -5 17 -19 37 -13 20 -27
47 -30 60 -4 13 -9 23 -13 23 -3 0 -7 10 -7 23 -1 12 -5 33 -8 47 -8 26 -9
140 -3 175 3 16 -8 25 -61 47 -35 16 -68 25 -73 22 -5 -3 -9 0 -9 6 0 6 -4 9
-9 6 -5 -4 -11 -2 -13 4 -1 5 -12 11 -23 13 -11 2 -27 7 -35 10 -66 27 -124
45 -131 42 -4 -3 -9 -1 -11 3 -2 7 -127 48 -171 56 -7 2 -37 10 -68 20 -31 9
-65 18 -75 21 -11 2 -57 13 -104 25 -93 24 -112 29 -150 36 -14 3 -32 7 -40 9
-8 2 -28 7 -45 10 -16 2 -41 7 -55 11 -14 3 -61 12 -105 20 -44 8 -91 17 -105
19 -14 3 -41 8 -60 11 -19 3 -61 10 -93 15 -33 6 -73 12 -90 14 -18 1 -68 8
-112 14 -44 6 -102 13 -130 16 -54 5 -166 16 -202 19 -37 3 -36 12 9 46 24 18
51 42 61 54 10 11 24 21 32 22 15 2 78 45 83 57 2 4 7 5 12 2 5 -3 15 1 23 9
8 8 26 18 41 22 14 3 26 10 26 15 0 5 3 8 8 7 4 -2 39 10 77 26 39 16 79 32
90 36 11 5 44 14 73 21 28 7 52 17 52 21 0 5 3 7 8 5 4 -3 45 4 92 15 79 18
106 22 153 26 16 2 18 8 13 44 -3 22 -9 44 -12 47 -6 6 -112 9 -118 4z"/>
<path d="M806 3113 c-2 -2 -24 -5 -49 -7 -26 -3 -51 -7 -57 -11 -6 -3 -22 -9
-37 -11 -15 -3 -33 -10 -40 -16 -7 -6 -13 -8 -13 -4 0 9 -127 -60 -170 -92
-70 -53 -207 -212 -183 -212 4 0 3 -4 -3 -8 -14 -9 -57 -92 -48 -92 4 0 2 -6
-4 -12 -11 -15 -38 -110 -42 -153 -9 -93 0 -232 17 -275 3 -8 7 -19 8 -25 4
-30 18 -65 26 -65 5 0 8 -3 7 -7 -4 -14 13 -53 23 -53 5 0 8 -3 7 -7 -4 -17
14 -53 24 -47 7 4 8 2 4 -4 -4 -6 2 -20 14 -32 11 -11 20 -24 20 -30 0 -5 7
-10 16 -10 8 0 13 -4 10 -9 -3 -5 21 -33 55 -62 198 -175 458 -229 709 -148
76 25 280 127 280 141 0 5 5 6 10 3 6 -3 10 -1 10 6 0 7 3 10 6 6 3 -3 29 8
57 25 28 16 68 36 89 45 21 8 38 19 38 24 0 5 3 8 8 7 8 -3 104 33 112 41 3 4
12 8 20 10 8 2 65 16 125 31 155 40 250 51 435 53 160 1 302 -10 495 -39 22
-4 51 -8 65 -9 14 -2 25 -4 25 -5 0 -1 11 -4 25 -6 46 -7 126 -22 166 -32 78
-20 80 -16 54 84 -13 51 -13 51 -78 74 -36 13 -71 23 -79 23 -7 0 -13 4 -13 7
0 4 -15 11 -32 15 -40 9 -32 7 -98 30 -30 10 -59 20 -65 21 -5 1 -37 10 -70
20 -33 10 -64 19 -70 20 -5 1 -46 12 -90 24 -44 12 -87 23 -95 25 -8 2 -55 13
-105 25 -49 12 -99 24 -110 26 -11 2 -33 7 -50 10 -16 4 -39 8 -50 10 -11 2
-31 5 -45 9 -14 3 -38 8 -55 10 -16 3 -37 8 -45 10 -8 2 -37 7 -65 11 -27 3
-52 8 -55 9 -3 2 -26 6 -50 9 -51 7 -117 17 -140 21 -21 4 -105 14 -160 20
-124 13 -152 15 -160 10 -5 -3 -4 -20 1 -38 17 -54 12 -196 -8 -247 -6 -14
-16 -42 -24 -62 -7 -21 -17 -38 -21 -38 -4 0 -8 -6 -8 -14 0 -20 -120 -141
-148 -150 -13 -5 -20 -12 -16 -19 4 -7 4 -9 0 -5 -4 3 -26 -2 -49 -12 -23 -9
-51 -21 -62 -25 -44 -16 -167 -23 -220 -11 -16 4 -41 9 -55 12 -14 3 -29 9
-34 15 -6 5 -16 9 -24 9 -7 0 -33 13 -56 30 -24 16 -47 26 -52 22 -5 -4 -6 -3
-2 2 8 10 -14 36 -25 29 -4 -2 -7 -1 -7 4 0 4 -12 21 -26 38 -14 16 -35 45
-46 65 -12 19 -27 38 -32 42 -6 4 -8 8 -4 8 4 0 -2 26 -13 58 -20 58 -27 165
-15 232 9 47 49 150 58 150 5 0 8 6 8 13 0 28 115 136 181 171 37 19 70 32 73
29 3 -4 6 -2 6 3 0 5 8 10 18 11 9 0 28 4 42 7 34 8 139 9 170 1 14 -3 35 -8
47 -11 12 -2 33 -8 45 -13 13 -5 28 -9 33 -11 6 -1 18 -8 27 -17 9 -8 21 -12
27 -9 10 6 32 64 30 80 0 5 3 12 8 15 19 14 51 98 42 113 -8 14 -94 55 -130
62 -8 2 -22 6 -31 10 -9 4 -22 5 -28 1 -5 -3 -10 -2 -10 3 0 5 -6 9 -12 10
-44 4 -189 8 -192 5z"/>
</g>
</svg>
