<svg xmlns="http://www.w3.org/2000/svg" xmlns:xlink="http://www.w3.org/1999/xlink" width="0" height="0" style="display:none;"><symbol viewBox="0 0 24 24" id="equalizer-fill"><path fill="none" d="M0 0h24v24H0z"></path><path d="M6.17071 18C6.58254 16.8348 7.69378 16 9 16C10.3062 16 11.4175 16.8348 11.8293 18H22V20H11.8293C11.4175 21.1652 10.3062 22 9 22C7.69378 22 6.58254 21.1652 6.17071 20H2V18H6.17071ZM12.1707 11C12.5825 9.83481 13.6938 9 15 9C16.3062 9 17.4175 9.83481 17.8293 11H22V13H17.8293C17.4175 14.1652 16.3062 15 15 15C13.6938 15 12.5825 14.1652 12.1707 13H2V11H12.1707ZM6.17071 4C6.58254 2.83481 7.69378 2 9 2C10.3062 2 11.4175 2.83481 11.8293 4H22V6H11.8293C11.4175 7.16519 10.3062 8 9 8C7.69378 8 6.58254 7.16519 6.17071 6H2V4H6.17071Z"></path></symbol><symbol viewBox="0 0 24 24" id="palette-fill"><path fill="none" d="M0 0h24v24H0z"></path><path d="M12 2C17.5222 2 22 5.97778 22 10.8889C22 13.9556 19.5111 16.4444 16.4444 16.4444H14.4778C13.5556 16.4444 12.8111 17.1889 12.8111 18.1111C12.8111 18.5333 12.9778 18.9222 13.2333 19.2111C13.5 19.5111 13.6667 19.9 13.6667 20.3333C13.6667 21.2556 12.9 22 12 22C6.47778 22 2 17.5222 2 12C2 6.47778 6.47778 2 12 2ZM7.5 12C8.32843 12 9 11.3284 9 10.5C9 9.67157 8.32843 9 7.5 9C6.67157 9 6 9.67157 6 10.5C6 11.3284 6.67157 12 7.5 12ZM16.5 12C17.3284 12 18 11.3284 18 10.5C18 9.67157 17.3284 9 16.5 9C15.6716 9 15 9.67157 15 10.5C15 11.3284 15.6716 12 16.5 12ZM12 9C12.8284 9 13.5 8.32843 13.5 7.5C13.5 6.67157 12.8284 6 12 6C11.1716 6 10.5 6.67157 10.5 7.5C10.5 8.32843 11.1716 9 12 9Z"></path></symbol><symbol viewBox="0 0 24 24" id="sun-fill"><path fill="none" d="M0 0h24v24H0z"></path><path d="M12 18C8.68629 18 6 15.3137 6 12C6 8.68629 8.68629 6 12 6C15.3137 6 18 8.68629 18 12C18 15.3137 15.3137 18 12 18ZM11 1H13V4H11V1ZM11 20H13V23H11V20ZM3.51472 4.92893L4.92893 3.51472L7.05025 5.63604L5.63604 7.05025L3.51472 4.92893ZM16.9497 18.364L18.364 16.9497L20.4853 19.0711L19.0711 20.4853L16.9497 18.364ZM19.0711 3.51472L20.4853 4.92893L18.364 7.05025L16.9497 5.63604L19.0711 3.51472ZM5.63604 16.9497L7.05025 18.364L4.92893 20.4853L3.51472 19.0711L5.63604 16.9497ZM23 11V13H20V11H23ZM4 11V13H1V11H4Z"></path></symbol><symbol viewBox="0 0 24 24" id="moon-clear-fill"><path fill="none" d="M0 0h24v24H0z"></path><path d="M9.8216 2.23796C9.29417 3.38265 9 4.65697 9 6C9 10.9706 13.0294 15 18 15C19.343 15 20.6174 14.7058 21.762 14.1784C20.7678 18.6537 16.7747 22 12 22C6.47715 22 2 17.5228 2 12C2 7.22532 5.3463 3.23221 9.8216 2.23796ZM18.1642 2.29104L19 2.5V3.5L18.1642 3.70896C17.4476 3.8881 16.8881 4.4476 16.709 5.16417L16.5 6H15.5L15.291 5.16417C15.1119 4.4476 14.5524 3.8881 13.8358 3.70896L13 3.5V2.5L13.8358 2.29104C14.5524 2.1119 15.1119 1.5524 15.291 0.835829L15.5 0H16.5L16.709 0.835829C16.8881 1.5524 17.4476 2.1119 18.1642 2.29104ZM23.1642 7.29104L24 7.5V8.5L23.1642 8.70896C22.4476 8.8881 21.8881 9.4476 21.709 10.1642L21.5 11H20.5L20.291 10.1642C20.1119 9.4476 19.5524 8.8881 18.8358 8.70896L18 8.5V7.5L18.8358 7.29104C19.5524 7.1119 20.1119 6.5524 20.291 5.83583L20.5 5H21.5L21.709 5.83583C21.8881 6.5524 22.4476 7.1119 23.1642 7.29104Z"></path></symbol></svg>